<?xml version="1.0" encoding="utf-8"?><svg xmlns="http://www.w3.org/2000/svg" xmlns:xlink="http://www.w3.org/1999/xlink"><symbol viewBox="0 0 40 50" id="bag" xmlns="http://www.w3.org/2000/svg"><path fill-rule="evenodd" clip-rule="evenodd" d="M13.5 9c0-1.726.764-2.98 1.96-3.85 1.24-.901 2.976-1.4 4.79-1.4s3.55.499 4.79 1.4C26.235 6.02 27 7.275 27 9v5H13.5V9zm-3 8v7s0 2 1.5 2 1.5-2 1.5-2v-7H27v7s0 2 1.5 2 1.5-2 1.5-2v-7h3.012a2 2 0 0 1 1.995 1.859l1.841 26A2 2 0 0 1 34.853 47H5.147a2 2 0 0 1-1.995-2.141l1.841-26A2 2 0 0 1 6.988 17H10.5zm0-3V9c0-2.774 1.298-4.895 3.196-6.276C15.55 1.376 17.939.75 20.25.75c2.31 0 4.7.626 6.554 1.974C28.702 4.104 30 6.226 30 9v5h5.634a2 2 0 0 1 1.995 1.861l2.223 32A2 2 0 0 1 37.855 50H2.144a2 2 0 0 1-1.995-2.139l2.222-32A2 2 0 0 1 4.366 14H10.5z"/></symbol></svg>