<svg width="40" height="50" viewBox="0 0 40 50" fill="none" xmlns="http://www.w3.org/2000/svg">
<path fill-rule="evenodd" clip-rule="evenodd" d="M13.5 9C13.5 7.27399 14.2645 6.02031 15.4604 5.1506C16.7002 4.24891 18.4355 3.75 20.25 3.75C22.0645 3.75 23.7998 4.24891 25.0396 5.1506C26.2355 6.02031 27 7.27399 27 9V14H13.5V9ZM10.5 17V24C10.5 24 10.5 26 12 26C13.5 26 13.5 24 13.5 24V17H27V24C27 24 27 26 28.5 26C30 26 30 24 30 24V17H33.0117C34.0614 17 34.9325 17.8116 35.0067 18.8587L36.8483 44.8587C36.9303 46.016 36.0135 47 34.8533 47H5.14668C3.98647 47 3.0697 46.016 3.15168 44.8587L4.99335 18.8587C5.06752 17.8116 5.93861 17 6.98835 17H10.5ZM10.5 14V9C10.5 6.22601 11.798 4.10469 13.6959 2.72439C15.5498 1.37609 17.9395 0.75 20.25 0.75C22.5605 0.75 24.9502 1.37609 26.8041 2.7244C28.702 4.10469 30 6.22601 30 9V14H35.6341C36.6849 14 37.5565 14.8132 37.6293 15.8614L39.8515 47.8614C39.9318 49.0178 39.0154 50 37.8563 50H2.14371C0.984596 50 0.0682175 49.0178 0.148518 47.8614L2.37074 15.8614C2.44354 14.8132 3.31514 14 4.36594 14H10.5Z" fill="black"/>
</svg>
